<?xml version="1.0" standalone="no"?>
<!DOCTYPE svg PUBLIC "-//W3C//DTD SVG 20010904//EN"
 "http://www.w3.org/TR/2001/REC-SVG-20010904/DTD/svg10.dtd">
<svg version="1.0" xmlns="http://www.w3.org/2000/svg"
 width="479.000000pt" height="426.000000pt" viewBox="0 0 479.000000 426.000000"
 preserveAspectRatio="xMidYMid meet">
<metadata>
Created by potrace 1.10, written by Peter Selinger 2001-2011
</metadata>
<g transform="translate(0.000000,426.000000) scale(0.100000,-0.100000)"
fill="#000000" stroke="none">
<path d="M223 3864 c-25 -25 -25 -29 -19 -108 11 -132 49 -268 111 -391 68
-135 131 -221 255 -346 170 -171 354 -291 676 -439 401 -185 472 -228 514
-314 l22 -47 -26 -53 c-76 -155 -330 -275 -751 -356 -162 -31 -182 -37 -204
-69 -20 -28 -21 -42 -21 -465 l0 -437 25 -24 c29 -30 62 -32 166 -10 212 45
505 38 719 -16 161 -41 359 -158 505 -300 57 -55 112 -99 128 -103 41 -10 100
21 196 102 227 193 439 298 679 337 129 22 406 16 522 -10 135 -30 147 -30
180 4 l30 29 0 427 0 427 -29 28 c-51 51 -121 65 -336 65 -146 0 -209 -4 -275
-19 -211 -45 -429 -137 -606 -256 -73 -49 -272 -237 -323 -304 l-21 -29 -58
55 c-91 86 -161 128 -351 209 l-33 15 83 38 c157 73 400 197 477 243 172 103
360 249 452 350 141 155 229 322 330 624 40 118 86 241 104 274 43 83 133 170
214 208 60 28 77 31 200 36 117 5 135 8 148 25 22 31 17 60 -20 106 -38 48
-190 187 -251 229 -152 106 -344 146 -514 106 -74 -18 -219 -90 -299 -150 -32
-23 -137 -119 -235 -213 -98 -95 -181 -172 -186 -172 -4 0 -59 46 -121 103
-454 411 -589 486 -910 502 -517 26 -676 42 -909 90 -162 33 -204 33 -238 -1z
m377 -189 c160 -23 293 -35 570 -50 271 -15 347 -24 435 -52 134 -43 313 -164
484 -329 240 -232 290 -261 372 -219 16 9 112 95 212 191 197 191 281 257 397
313 73 35 78 36 190 36 104 -1 121 -3 175 -28 51 -24 205 -130 205 -141 0 -3
-24 -12 -52 -21 -139 -45 -264 -136 -337 -244 -59 -86 -73 -120 -156 -361 -43
-124 -92 -255 -110 -291 -97 -191 -258 -378 -420 -486 -146 -97 -369 -221
-540 -301 -205 -95 -277 -123 -400 -156 -135 -36 -159 -48 -175 -85 -16 -39 0
-83 36 -100 14 -6 67 -11 119 -11 110 0 265 -28 352 -63 87 -35 143 -76 259
-189 56 -54 108 -98 115 -98 41 1 65 21 136 114 97 127 175 206 282 284 154
113 345 196 551 238 90 19 398 27 453 11 l27 -7 0 -330 c0 -181 -3 -331 -8
-334 -4 -2 -27 0 -52 5 -88 17 -341 22 -450 10 -311 -37 -531 -128 -768 -318
l-142 -115 -68 63 c-176 167 -425 294 -682 349 -121 26 -541 22 -657 -7 l-23
-5 0 346 0 346 23 4 c12 3 49 10 82 16 90 17 329 78 399 102 90 30 253 114
314 161 119 91 172 185 172 303 0 87 -18 123 -104 210 -76 76 -36 53 -651 356
-341 168 -614 416 -721 655 -26 58 -74 224 -74 254 0 15 6 15 67 2 38 -7 111
-20 163 -28z"/>
</g>
</svg>
